<?xml version="1.0" encoding="UTF-8" standalone="no"?>
<svg
   xmlns:dc="http://purl.org/dc/elements/1.1/"
   xmlns:cc="http://creativecommons.org/ns#"
   xmlns:rdf="http://www.w3.org/1999/02/22-rdf-syntax-ns#"
   xmlns:svg="http://www.w3.org/2000/svg"
   xmlns="http://www.w3.org/2000/svg"
   xmlns:sodipodi="http://sodipodi.sourceforge.net/DTD/sodipodi-0.dtd"
   xmlns:inkscape="http://www.inkscape.org/namespaces/inkscape"
   viewBox="0 0 516.073 157.52524"
   height="157.52524"
   width="516.073"
   xml:space="preserve"
   id="svg2"
   version="1.1"
   inkscape:version="0.48.5 r10040"
   sodipodi:docname="Ryobi.svg"><sodipodi:namedview
     pagecolor="#ffffff"
     bordercolor="#666666"
     borderopacity="1"
     objecttolerance="10"
     gridtolerance="10"
     guidetolerance="10"
     inkscape:pageopacity="0"
     inkscape:pageshadow="2"
     inkscape:window-width="1280"
     inkscape:window-height="972"
     id="namedview17"
     showgrid="false"
     fit-margin-top="10"
     fit-margin-bottom="10"
     fit-margin-right="5"
     fit-margin-left="5"
     inkscape:zoom="1"
     inkscape:cx="277.16687"
     inkscape:cy="117.69592"
     inkscape:window-x="-8"
     inkscape:window-y="-8"
     inkscape:window-maximized="1"
     inkscape:current-layer="g12" /><metadata
     id="metadata8"><rdf:RDF><cc:Work
         rdf:about=""><dc:format>image/svg+xml</dc:format><dc:type
           rdf:resource="http://purl.org/dc/dcmitype/StillImage" /><dc:title></dc:title></cc:Work></rdf:RDF></metadata><defs
     id="defs6" /><g
     transform="matrix(1.3333333,0,0,-1.3333333,-8.0062531,169.16266)"
     id="g10"><g
       transform="scale(0.1,0.1)"
       id="g12"><path
         id="path16"
         style="fill:#ff2e16;fill-opacity:1;fill-rule:evenodd;stroke:none"
         d="m 680.59589,603.34711 c 32.62398,0 63.4267,7.79785 90.6789,21.66654 l 0.0459,0.29664 c 96.10587,48.87504 161.60679,146.1399 161.60679,258.22088 0,140.45763 -103.02987,257.80463 -240.15086,285.44553 l -3.53904,0.8738 c -13.65483,2.4605 -42.26377,6.8297 -56.64528,6.8297 H 97.5469 V 966.77556 h 516.49487 c 5.3281,0 14.73333,-1.01181 23.83273,-1.79366 44.19311,-5.05906 78.50727,-42.58802 78.50727,-88.11948 0,-45.53146 -34.31416,-83.10641 -78.50727,-88.16546 -7.58167,-0.73587 -18.83806,-1.56371 -23.74305,-1.56371 H 195.51106 l 0.0828,-602.66638 223.91131,0.29665 v 407.10415 h 1.52691 L 701.61394,184.76352 H 967.28772 L 677.45928,603.446 l 3.13661,-0.0989"
         inkscape:connector-curvature="0" /><path
         id="path18"
         style="fill:#ff2e16;fill-opacity:1;fill-rule:evenodd;stroke:none"
         d="m 3669.1292,184.8532 h 223.9654 v 986.2459 h -223.9654 z"
         inkscape:connector-curvature="0" /><path
         id="path20"
         style="fill:#ff2e16;fill-opacity:1;fill-rule:evenodd;stroke:none"
         d="m 1353.7395,833.23961 209.1618,337.99059 h 254.7669 L 1465.4571,603.68975 V 184.80721 H 1241.4125 V 603.68975 L 889.60369,1171.2302 h 254.76691 l 209.3689,-337.99059"
         inkscape:connector-curvature="0" /><path
         id="path22"
         style="fill:#ff2e16;fill-opacity:1;fill-rule:evenodd;stroke:none"
         d="m 3065.0095,467.41271 -0.2299,124.10543 h 166.6956 c 9.8423,0 22.8578,-0.99802 34.9995,-2.1662 50.8205,-2.72959 91.1549,-44.84159 91.1549,-96.35652 0,-51.51495 -40.3344,-93.59016 -91.1549,-96.36573 -7.9795,-0.73817 -25.2723,-1.6442 -35.0914,-1.6442 h -166.6037 l 0.2299,67.46935 z m -224.1849,-4.06104 V 184.67383 h 378.1641 c 30.5152,0.20696 71.2175,4.3025 83.5663,5.90069 156.3247,20.13963 276.983,148.43947 276.983,303.92941 0,49.0912 -12.0497,95.49649 -33.4127,136.66337 l -0.5059,1.02331 c -16.9018,32.37333 -43.8528,58.6666 -76.6446,74.79117 h -1.0349 c 21.915,16.63509 39.7136,38.43729 51.6024,63.59458 l 0.5979,0.66687 c 15.0621,31.02118 26.445,67.23939 26.445,102.3768 0,159.56707 -103.7335,270.75127 -256.2409,291.10237 -10.624,1.5178 -43.4159,6.3698 -70.7118,6.3698 H 2775.5398 V 961.39457 h 455.5216 c 5.7259,0 18.7185,-1.47173 27.8248,-2.25357 44.7956,-4.20822 79.841,-41.89815 79.841,-87.77455 0,-45.87639 -35.0454,-83.61232 -79.841,-87.82052 -8.7154,-1.12679 -21.593,-2.09261 -27.6408,-2.09261 H 2840.8246 V 463.35167"
         inkscape:connector-curvature="0" /><path
         id="path24"
         style="fill:#ff2e16;fill-opacity:1;fill-rule:evenodd;stroke:none"
         d="m 1707.0751,677.99342 c 0,284.80389 230.8997,515.72658 515.6944,515.72658 284.8476,0 515.7243,-230.92269 515.7243,-515.72658 0,-284.81309 -230.8767,-515.71279 -515.7243,-515.71279 -284.7947,0 -515.6944,230.8997 -515.6944,515.71279 z M 2222.7695,386.9554 c 160.7628,0 291.0564,130.30276 291.0564,291.03802 0,160.74216 -130.2936,291.05871 -291.0564,291.05871 -160.7261,0 -291.0196,-130.31655 -291.0196,-291.05871 0,-160.73526 130.2935,-291.03802 291.0196,-291.03802"
         inkscape:connector-curvature="0" /></g></g></svg>